<?xml version="1.0" encoding="UTF-8"?>
<svg width="130px" height="153px" viewBox="0 0 130 153" version="1.1" xmlns="http://www.w3.org/2000/svg" xmlns:xlink="http://www.w3.org/1999/xlink">
    <!-- Generator: sketchtool 51.2 (57519) - http://www.bohemiancoding.com/sketch -->
    <title>81E4EDFC-A549-413E-A07B-186112D89092@2x</title>
    <desc>Created with sketchtool.</desc>
    <defs></defs>
    <g id="Page-1" stroke="none" stroke-width="1" fill="none" fill-rule="evenodd">
        <g id="LP---stag-test---mobile1" transform="translate(-95.000000, -490.000000)">
            <g id="FEATURES" transform="translate(22.000000, 490.000000)">
                <g id="feature-1">
                    <g id="feature-1-icon" transform="translate(72.833984, 0.000000)">
                        <path d="M56.9295521,152.402053 C31.5284756,153.125942 8.06395467,129.122413 1.74764014,93.4980139 C-5.48277742,52.7836571 15.0658359,9.3728035 44.3720703,0.169189453 L73.6540527,0.169189453 C44.3493444,9.37507749 15.917,52.1734685 23.1397873,92.8878254 C29.462206,128.512224 54.5554053,151.841783 79.9580078,151.118652 L56.9295521,152.402053 Z" id="Fill-477-Copy" fill="#F99B0F"></path>
                        <path d="M86.1676813,136.691863 C110.468187,129.073067 125.310815,95.5688551 119.319527,61.8593233 C113.331295,28.1505491 88.7718253,7.00945332 64.4720831,14.6237026 C40.1677574,22.2470436 25.3251295,55.7573169 31.3194734,89.4630606 C37.3061782,123.168804 61.867939,144.316719 86.1676813,136.691863 M62.2231538,1.98101822 C91.5654172,-7.22048008 121.20713,18.2997561 128.441288,58.9992446 C135.67621,99.6941872 117.756582,140.136079 88.4181384,149.341366 C59.0781667,158.544379 29.4265227,133.018082 22.1938927,92.3223817 C14.9635544,51.627439 32.8854737,11.1817589 62.2231538,1.98101822" id="Fill-479-Copy" fill="#FFC910"></path>
                        <path d="M64.4245775,13.692417 C88.8288492,5.95979435 113.49705,27.428189 119.512188,61.6568342 C125.52886,95.8877875 110.621446,129.908711 86.214873,137.64595 C61.8090669,145.388574 37.1400985,123.914025 31.1257283,89.6876875 C25.1067548,55.4590422 40.0149352,21.4335023 64.4245775,13.692417" id="Fill-481-Copy" fill="#FFAB01"></path>
                        <path d="M60.5511799,49.3264685 L64.3212922,70.4931891 L74.8605221,67.1877242 C75.9140604,66.8590082 76.870633,66.2564892 77.6986879,65.4472833 C80.295979,62.9151783 81.6357964,58.3421355 80.8169763,53.7546017 C79.7426598,47.6981419 75.3291889,43.9037977 70.9634312,45.271287 L60.4188143,48.5767519 L60.5511799,49.3264685 M85.7414402,99.373678 C88.7227455,96.3976919 90.2518766,91.1100158 89.3045387,85.8009846 C88.0470651,78.7431231 82.8994266,74.3096511 77.8033491,75.9067078 L65.9443105,79.6247837 L66.0759066,80.3745004 L70.4893775,105.193706 L82.3499552,101.474868 C83.6151246,101.080561 84.7556239,100.350674 85.7414402,99.373678 M85.4643958,67.6544858 C90.4727425,70.2186235 94.5268253,76.0737352 95.892808,83.733353 C97.4696523,92.6094491 95.0070356,101.467241 90.1333632,106.632888 C88.3725922,108.499171 86.2932202,109.880389 83.9791301,110.607988 L82.6554736,111.019073 L82.7924567,111.76879 L83.3072975,114.671559 L82.2291331,115.006376 L76.7190282,116.733089 L76.0710522,113.086705 L72.1147045,114.32225 L72.2470702,115.071967 L72.7665284,117.97321 L71.6837466,118.311841 L66.1759504,120.036266 L65.5279744,116.388356 L61.5770137,117.627715 L60.0848219,109.2466 L59.9563041,108.496883 L62.824483,107.599969 L63.9064952,107.25905 L59.3545021,81.6901273 L57.7268664,72.5570073 L53.8343928,50.6420954 L49.8834321,51.8784034 L48.3927795,43.4972881 L48.2557964,42.7513848 L51.1285927,41.848369 L52.2067571,41.5112635 L51.6919163,38.6046814 L51.5549332,37.8549648 L58.1455112,35.7934346 L58.7950264,39.4459199 L61.6739792,38.5444295 L62.7498349,38.2057986 L62.233455,35.3007419 L62.1026284,34.5510252 L68.688589,32.4856817 L69.3404129,36.1419804 C77.3308345,33.6358065 85.4359218,40.6105357 87.4052456,51.6892582 C88.4256924,57.4131885 87.596868,63.1211025 85.4643958,67.6544858" id="Fill-489-Copy" fill="#F99B0F"></path>
                        <path d="M62.9578501,49.3246206 L66.7221404,70.4903689 L77.2661552,67.1886312 C78.3182478,66.8553303 79.2741358,66.2573718 80.100725,65.4458567 C82.704404,62.9136854 84.0404923,58.3420485 83.2231388,53.7505813 C82.1448785,47.6939633 77.7310154,43.9040961 73.3671786,45.2716211 L62.8231638,48.5748843 L62.9578501,49.3246206 M88.146501,99.3716126 C91.1296106,96.3985995 92.6550294,91.1092598 91.7091466,85.8000899 C90.4523308,78.7382304 85.3057741,74.3122696 80.2077044,75.9055544 L68.3476119,79.625253 L68.4799893,80.3711757 L72.894622,105.194844 L84.7608717,101.476671 C86.0176875,101.077777 87.1605971,100.352448 88.146501,99.3716126 M87.8686624,67.6508287 C92.8782239,70.2173215 96.9342062,76.0725862 98.2980014,83.7324043 C99.8757554,92.6110204 97.4129199,101.469044 92.5341965,106.634826 C90.7778869,108.500395 88.6975605,109.880123 86.382495,110.607741 L85.0641083,111.021126 L85.1972554,111.772387 L85.7159901,114.66913 L84.6338818,115.008533 L79.1248264,116.735291 L78.4752535,113.086523 L74.5200935,114.322101 L74.6524709,115.074125 L75.1681271,117.974682 L74.087558,118.311796 L68.5792723,120.036266 L67.932778,116.388261 L63.9799269,117.627652 L62.4891417,109.246318 L62.3544554,108.49887 L65.227507,107.597356 L66.3073065,107.261004 L61.758757,81.686837 L60.1332856,72.5557664 L56.2381572,50.6402818 L52.2829972,51.8766221 L50.7960602,43.4952878 L50.6613739,42.7470769 L53.5298077,41.8501391 L54.6088375,41.5069232 L54.0931813,38.6025532 L53.9608039,37.8543424 L60.5473498,35.791233 L61.1976923,39.4415256 L64.0745921,38.5422998 L65.1543916,38.2074735 L64.6356569,35.2985274 L64.5071276,34.5472657 L71.0898253,32.4856817 L71.744016,36.142076 C79.7366871,33.6358366 87.8424947,40.60846 89.8143025,51.6836584 C90.8302221,57.4115518 90.003633,63.1173269 87.8686624,67.6508287" id="Fill-491-Copy" fill="#FFCA10"></path>
                    </g>
                </g>
            </g>
        </g>
    </g>
</svg>