<?xml version="1.0" encoding="UTF-8"?>
<svg width="165px" height="104px" viewBox="0 0 165 104" version="1.1" xmlns="http://www.w3.org/2000/svg" xmlns:xlink="http://www.w3.org/1999/xlink">
    <!-- Generator: sketchtool 51.2 (57519) - http://www.bohemiancoding.com/sketch -->
    <title>71EE9685-EA05-4F15-9DE8-983F6F14962F@2x</title>
    <desc>Created with sketchtool.</desc>
    <defs></defs>
    <g id="Page-1" stroke="none" stroke-width="1" fill="none" fill-rule="evenodd">
        <g id="LP---stag-test---mobile1" transform="translate(-77.000000, -1179.000000)">
            <g id="FEATURES" transform="translate(22.000000, 490.000000)">
                <g id="feature-3" transform="translate(0.000000, 688.000000)">
                    <g id="Group-13-Copy-2" transform="translate(137.896564, 52.375000) scale(-1, 1) translate(-137.896564, -52.375000) translate(55.396564, 0.375000)">
                        <polygon id="Fill-1" fill="#F3F3F4" points="0.410124253 103.707427 164.664888 103.707427 164.664888 0.695767131 0.410124253 0.695767131"></polygon>
                        <polygon id="Fill-2" fill="#CDD5D7" points="0.410124253 11.119566 164.664888 11.119566 164.664888 0.695767131 0.410124253 0.695767131"></polygon>
                        <path d="M3.48605615,6.2142489 L6.56198805,6.2142489" id="Stroke-3" stroke="#879BA6" stroke-width="6.5"></path>
                        <path d="M9.63791995,6.2142489 L12.7138519,6.2142489" id="Stroke-4" stroke="#879BA6" stroke-width="6.5"></path>
                        <path d="M15.7897838,6.2142489 L18.8657157,6.2142489" id="Stroke-5" stroke="#879BA6" stroke-width="6.5"></path>
                        <polyline id="Stroke-6" stroke="#B0D9EF" stroke-width="2.167" points="160.973769 93.8967925 53.9313393 93.8967925 53.9313393 22.1565296"></polyline>
                        <g id="Group-123" transform="translate(9.022734, 20.301151)">
                            <path d="M19.5619411,34.9542475 C15.8104434,34.9542475 12.2680179,33.6183198 9.47926415,31.1758321 L20.069447,20.6316254 L34.8225278,20.6316254 C34.6083974,24.3596917 33.0465379,27.8326562 30.3724366,30.4955607 C27.4842049,33.3710501 23.6450318,34.9542475 19.5619411,34.9542475" id="Fill-7" fill="#0088EE"></path>
                            <path d="M20.5559334,18.3187027 L20.5559334,4.5471228 C28.1005184,5.02096316 34.0972945,10.829004 34.7784653,18.3187027 L20.5559334,18.3187027 Z" id="Fill-9" fill="#00BB44"></path>
                            <path d="M20.3907551,1.3778189 C30.1800565,1.83935171 37.9741793,9.88736519 37.9741793,19.7462656 C37.9741793,29.9022253 29.7023377,38.1370897 19.49995,38.1370897 C14.7941388,38.1370897 10.4997277,36.383265 7.23887535,33.500503" id="Stroke-11" stroke="#D9E1E4" stroke-width="4.333"></path>
                            <path d="M5.03720988,30.7497115 C2.61377047,27.5978619 1.29245646,23.7383287 1.29245646,19.7462097 C1.29245646,10.7046419 8.05639273,3.06445562 16.9172336,1.80796748 L16.9172336,18.6776913 L5.03720988,30.7497115 Z" id="Fill-13" fill="#B6C2C9"></path>
                            <path d="M18.1349669,0.46219373 C8.04442166,1.15924814 0.0743859067,9.52334167 0.0743859067,19.7464334 C0.0743859067,24.6621775 1.92231465,29.1482765 4.96004424,32.5613816 L18.1349669,19.171895 L18.1349669,0.46219373 Z M15.699725,3.26495666 L15.699725,18.1828162 L5.1927214,28.8607276 C3.44932877,26.1547467 2.50962777,22.9973028 2.50962777,19.7464334 C2.50962777,11.7890482 8.1242288,4.99472572 15.699725,3.26495666 Z" id="Fill-15" fill="#B6C2C9"></path>
                            <path d="M5.30012383,47.8894739 L13.4162853,47.8894739" id="Stroke-17" stroke="#00BB44" stroke-width="4.333"></path>
                            <path d="M34.424279,47.8894739 L17.1718858,47.8894739" id="Stroke-19" stroke="#A5B6BE" stroke-width="4.333"></path>
                            <path d="M5.30012383,54.5556861 L13.4162853,54.5556861" id="Stroke-21" stroke="#00BB44" stroke-width="4.333"></path>
                            <path d="M34.424279,54.5556861 L17.1718858,54.5556861" id="Stroke-23" stroke="#A5B6BE" stroke-width="4.333"></path>
                            <path d="M5.30012383,61.2219543 L13.4162853,61.2219543" id="Stroke-25" stroke="#D8E5ED" stroke-width="4.333"></path>
                            <path d="M34.424279,61.2219543 L17.1718858,61.2219543" id="Stroke-27" stroke="#A5B6BE" stroke-width="4.333"></path>
                            <path d="M45.4819519,8.33415341 L152.725328,8.33415341" id="Stroke-29" stroke="#D8E5ED" stroke-width="2.167"></path>
                            <path d="M45.4819519,17.9220641 L152.725328,17.9220641" id="Stroke-31" stroke="#D8E5ED" stroke-width="2.167"></path>
                            <path d="M45.4819519,27.5067861 L152.725328,27.5067861" id="Stroke-33" stroke="#D8E5ED" stroke-width="2.167"></path>
                            <path d="M45.4819519,37.0919556 L152.725328,37.0919556" id="Stroke-35" stroke="#D8E5ED" stroke-width="2.167"></path>
                            <path d="M45.4819519,46.6771811 L152.725328,46.6771811" id="Stroke-37" stroke="#D8E5ED" stroke-width="2.167"></path>
                            <path d="M45.4819519,56.2651477 L152.725328,56.2651477" id="Stroke-39" stroke="#D8E5ED" stroke-width="2.167"></path>
                            <path d="M45.4819519,65.8509326 L152.725328,65.8509326" id="Stroke-41" stroke="#D8E5ED" stroke-width="2.167"></path>
                            <path d="M103.56396,73.8463593 L103.56396,77.6997388" id="Stroke-43" stroke="#D8E5ED" stroke-width="2.167"></path>
                            <path d="M94.6616417,73.8463593 L94.6616417,77.6997388" id="Stroke-45" stroke="#D8E5ED" stroke-width="2.167"></path>
                            <path d="M85.7603915,73.8463593 L85.7603915,77.6997388" id="Stroke-47" stroke="#D8E5ED" stroke-width="2.167"></path>
                            <path d="M76.8602091,73.8463593 L76.8602091,77.6997388" id="Stroke-49" stroke="#D8E5ED" stroke-width="2.167"></path>
                            <path d="M67.957329,73.8463593 L67.957329,77.6997388" id="Stroke-51" stroke="#D8E5ED" stroke-width="2.167"></path>
                            <path d="M59.055573,73.8463593 L59.055573,77.6997388" id="Stroke-53" stroke="#D8E5ED" stroke-width="2.167"></path>
                            <path d="M50.1543228,73.8463593 L50.1543228,77.6997388" id="Stroke-55" stroke="#D8E5ED" stroke-width="2.167"></path>
                            <path d="M148.069087,73.8463593 L148.069087,77.6997388" id="Stroke-57" stroke="#D8E5ED" stroke-width="2.167"></path>
                            <path d="M139.168961,73.8463593 L139.168961,77.6997388" id="Stroke-59" stroke="#D8E5ED" stroke-width="2.167"></path>
                            <path d="M130.267148,73.8463593 L130.267148,77.6997388" id="Stroke-61" stroke="#D8E5ED" stroke-width="2.167"></path>
                            <path d="M121.363144,73.8463593 L121.363144,77.6997388" id="Stroke-63" stroke="#D8E5ED" stroke-width="2.167"></path>
                            <path d="M112.461894,73.8463593 L112.461894,77.6997388" id="Stroke-65" stroke="#D8E5ED" stroke-width="2.167"></path>
                            <polyline id="Stroke-67" stroke="#00BB44" stroke-width="4.333" transform="translate(98.285055, 44.101772) scale(-1, 1) translate(-98.285055, -44.101772) " points="51.4776039 64.4780263 93.8810492 37.7762549 120.193239 45.9915391 145.092505 23.7255177"></polyline>
                            <polyline id="Stroke-69" stroke="#0088EE" stroke-width="4.333" transform="translate(97.439211, 41.883729) scale(-1, 1) translate(-97.439211, -41.883729) " points="51.4776039 52.1529742 74.4575645 39.8303277 96.4388119 55.2348946 121.416761 28.5325638 143.400819 36.7489668"></polyline>
                        </g>
                    </g>
                </g>
            </g>
        </g>
    </g>
</svg>