<?xml version="1.0" encoding="UTF-8"?>
<svg width="143px" height="147px" viewBox="0 0 143 147" version="1.1" xmlns="http://www.w3.org/2000/svg" xmlns:xlink="http://www.w3.org/1999/xlink">
    <!-- Generator: sketchtool 51.2 (57519) - http://www.bohemiancoding.com/sketch -->
    <title>3626C1DE-0B8E-4A80-BBE0-A95BA34537C9@2x</title>
    <desc>Created with sketchtool.</desc>
    <defs></defs>
    <g id="Page-1" stroke="none" stroke-width="1" fill="none" fill-rule="evenodd">
        <g id="LP---stag-test---mobile1" transform="translate(-88.000000, -840.000000)">
            <g id="FEATURES" transform="translate(22.000000, 490.000000)">
                <g id="feature-2" transform="translate(0.000000, 350.000000)">
                    <g id="feature-2-icon" transform="translate(66.296854, 0.000000)">
                        <path d="M6.66814372,3.27787107 C4.9919143,3.27787107 3.62796211,4.51105667 3.62796211,6.0253661 L3.64363626,24.8756445 C3.64363626,47.412949 23.9317092,65.7481062 48.8689752,65.7481062 C51.1709648,65.7481062 53.5000827,65.5833001 55.8177464,65.2566843 L55.8177464,14.7715313 L29.8125285,14.7715313 C26.0853972,14.7715313 23.0536555,12.073342 23.0536555,8.75815115 L23.0536555,6.0253661 C23.0536555,4.51105667 21.6900048,3.27787107 20.0131725,3.27787107 L6.66814372,3.27787107 Z M48.8689752,69.0265221 C21.9305427,69.0265221 0.0153727208,49.2211854 0.0153727208,24.8767341 L0,6.02754535 C0,2.70309272 2.99074776,0 6.66814372,0 L20.0131725,0 C23.6905685,0 26.6807134,2.70309272 26.6807134,6.0253661 L26.6807134,8.75815115 C26.6807134,10.2408614 28.1136921,11.491481 29.8125285,11.491481 L59.4478185,11.491481 L59.4478185,67.9981864 L57.9687216,68.2496179 C54.949037,68.7655564 51.8868513,69.0265221 48.8689752,69.0265221 Z" id="Fill-1" fill="#EAC715"></path>
                        <path d="M86.48127,65.5222843 C88.8080882,65.849014 91.1494321,66.0151061 93.4568828,66.0151061 C118.492043,66.0151061 138.859949,47.6579707 138.859949,25.0942587 L138.874474,6.22084669 C138.874474,4.70501732 137.50574,3.47009911 135.824403,3.47009911 L122.426057,3.47009911 C120.743812,3.47009911 119.375986,4.70501732 119.375986,6.22302852 L119.375986,8.95768507 C119.375986,12.2781641 116.330453,14.9770931 112.589508,14.9770931 L86.48127,14.9770931 L86.48127,65.5222843 Z M93.4568828,69.2976758 C90.4313231,69.2976758 87.3582526,69.0366739 84.3208908,68.518761 L82.8368595,68.2670318 L82.8368595,11.6942507 L112.589508,11.6942507 C114.293542,11.6942507 115.73218,10.4424233 115.73218,8.95768507 L115.73218,6.22302852 C115.73218,2.8962767 118.735347,0.188347624 122.426057,0.188347624 L135.824403,0.188347624 C139.515416,0.188347624 142.519187,2.8962767 142.519187,6.22302852 L142.504057,25.0953496 C142.504057,49.4680749 120.501416,69.2976758 93.4568828,69.2976758 Z" id="Fill-4" fill="#EAC715"></path>
                        <polygon id="Fill-6" fill="#FFD917" points="65.9530431 132.736495 76.1618623 132.736495 76.1618623 76.385812 65.9530431 76.385812"></polygon>
                        <polygon id="Fill-8" fill="#EAC715" points="65.9530431 91.9797117 76.1618623 91.9797117 76.1618623 86.6636096 65.9530431 86.6636096"></polygon>
                        <polygon id="Fill-9" fill="#EAC715" points="64.3824555 89.498864 78.1250968 89.498864 78.1250968 75.3225916 64.3824555 75.3225916"></polygon>
                        <polygon id="Fill-10" fill="#FFD917" points="64.3824555 89.498864 78.1250968 89.498864 78.1250968 86.3092027 64.3824555 86.3092027"></polygon>
                        <path d="M94.499453,138.308755 C89.7662398,138.308755 85.9207486,134.884917 85.759755,130.610054 L73.0653308,130.610054 L69.4422215,130.610054 L56.7477974,130.610054 C56.5868037,134.884917 52.7416135,138.308755 48.0080994,138.308755 L39.2530543,138.308755 L39.2530543,146.558361 L69.4422215,146.558361 L73.0653308,146.558361 L103.254498,146.558361 L103.254498,138.308755 L94.499453,138.308755 Z" id="Fill-11" fill="#FFD917"></path>
                        <path d="M40.0383481,18.6175018 L40.0383481,63.8992235 C40.0383481,75.1001131 50.1113882,84.1827619 62.5398594,84.1827619 L79.9661825,84.1827619 C92.3946537,84.1827619 102.469204,75.1001131 102.469204,63.8992235 L102.469204,18.6175018 L40.0383481,18.6175018 Z" id="Fill-12" fill="#FFD917"></path>
                        <polygon id="Fill-13" fill="#FFD917" points="35.3265854 19.3263154 107.573614 19.3263154 107.573614 10.4661451 35.3265854 10.4661451"></polygon>
                        <polygon id="Fill-15" fill="#EAC715" points="40.0383481 23.5791972 102.469204 23.5791972 102.469204 19.3263154 40.0383481 19.3263154"></polygon>
                        <polygon id="Fill-16" fill="#EAC715" points="39.2530543 141.242258 39.2530543 146.558361 67.1387158 146.558361 71.0086886 146.558361 103.254498 146.558361 103.254498 141.242258"></polygon>
                    </g>
                </g>
            </g>
        </g>
    </g>
</svg>