<?xml version="1.0" encoding="UTF-8"?>
<svg width="13px" height="23px" viewBox="0 0 13 23" version="1.1" xmlns="http://www.w3.org/2000/svg" xmlns:xlink="http://www.w3.org/1999/xlink">
    <!-- Generator: sketchtool 51.2 (57519) - http://www.bohemiancoding.com/sketch -->
    <title>9613CD18-7733-4776-BA7F-46FBD95E575C@2x</title>
    <desc>Created with sketchtool.</desc>
    <defs></defs>
    <g id="Page-1" stroke="none" stroke-width="1" fill="none" fill-rule="evenodd">
        <g id="LP---stag-test---mobile1" transform="translate(-154.000000, -3086.000000)">
            <g id="FOOTER" transform="translate(0.000000, 2703.000000)">
                <g id="M.3-about-remessa" transform="translate(0.000000, 0.948427)">
                    <g id="Social-icons" transform="translate(106.000000, 377.821678)">
                        <g id="Icon-facebook" transform="translate(38.000000, 0.000000)">
                            <rect id="Icon-area" x="0" y="0" width="32" height="32.0699301"></rect>
                            <g id="facebook" transform="translate(11.000000, 6.013112)" stroke="#0077BB" stroke-linecap="round" stroke-linejoin="round" stroke-width="2">
                                <path d="M11,0 L8,0 C5.23857625,4.45059685e-16 3,2.24346824 3,5.01092657 L3,8.01748252 L0,8.01748252 L0,12.0262238 L3,12.0262238 L3,20.0437063 L7,20.0437063 L7,12.0262238 L10,12.0262238 L11,8.01748252 L7,8.01748252 L7,5.01092657 C7,4.45743491 7.44771525,4.00874126 8,4.00874126 L11,4.00874126 L11,0 Z" id="Shape"></path>
                            </g>
                        </g>
                    </g>
                </g>
            </g>
        </g>
    </g>
</svg>