<?xml version="1.0" encoding="UTF-8"?>
<svg width="24px" height="21px" viewBox="0 0 24 21" version="1.1" xmlns="http://www.w3.org/2000/svg" xmlns:xlink="http://www.w3.org/1999/xlink">
    <!-- Generator: sketchtool 51.2 (57519) - http://www.bohemiancoding.com/sketch -->
    <title>328766B1-6A99-4362-86B5-0019F10A760B@2x</title>
    <desc>Created with sketchtool.</desc>
    <defs></defs>
    <g id="Page-1" stroke="none" stroke-width="1" fill="none" fill-rule="evenodd">
        <g id="LP---stag-test---mobile1" transform="translate(-105.000000, -3088.000000)">
            <g id="FOOTER" transform="translate(0.000000, 2703.000000)">
                <g id="M.3-about-remessa" transform="translate(0.000000, 0.948427)">
                    <g id="Social-icons" transform="translate(106.000000, 377.821678)">
                        <g id="Icon-twitter">
                            <rect id="Icon-area" x="6" y="0" width="32" height="32.0699301"></rect>
                            <g id="twitter" transform="translate(0.000000, 8.015297)" stroke="#0077BB" stroke-linecap="round" stroke-linejoin="round" stroke-width="2">
                                <path d="M22,0.0102849697 C21.042385,0.687238507 19.9821079,1.20499935 18.86,1.5436285 C17.6263595,0.122066509 15.63837,-0.376444001 13.8820815,0.295360024 C12.125793,0.967164048 10.9748003,2.66637758 11,4.55018445 L11,5.55236976 C7.43066483,5.64512441 4.05202531,3.94082622 2,1.01247028 C2,1.01247028 -2,10.0321381 7,14.0408794 C4.94052756,15.4419007 2.48715691,16.1443955 0,16.04525 C9,21.0561766 20,16.04525 20,4.52011889 C19.9990791,4.24096381 19.9722975,3.96249736 19.92,3.68830507 C20.9406031,2.67959862 21.6608274,1.40604127 22,0.0102849697 Z" id="Shape"></path>
                            </g>
                        </g>
                    </g>
                </g>
            </g>
        </g>
    </g>
</svg>