<?xml version="1.0" encoding="UTF-8"?>
<svg width="214px" height="38px" viewBox="0 0 214 38" version="1.1" xmlns="http://www.w3.org/2000/svg" xmlns:xlink="http://www.w3.org/1999/xlink">
    <!-- Generator: sketchtool 51.2 (57519) - http://www.bohemiancoding.com/sketch -->
    <title>8EA49645-522C-4939-BAD5-25EC35345DFA</title>
    <desc>Created with sketchtool.</desc>
    <defs></defs>
    <g id="Page-1" stroke="none" stroke-width="1" fill="none" fill-rule="evenodd">
        <g id="LP---stag-test---mobile1" transform="translate(-53.000000, -34.000000)" fill="#0088EE" fill-rule="nonzero">
            <g id="HEADER">
                <g id="RM-logo" transform="translate(53.500000, 34.816406)">
                    <path d="M47.0370341,20.0318 L47.0370341,27.454 L44.8716273,27.454 L44.8716273,9.546 L50.5460367,9.546 C51.1652098,9.53460988 51.7844928,9.56179661 52.4002362,9.6274 C52.7729396,9.68105 53.1586877,9.7532 53.5313911,9.8383 C54.531331,10.1736442 55.3941291,10.8230299 55.9893701,11.6883 C56.5782415,12.5516333 56.8732983,13.5999667 56.8745407,14.8333 C56.8763098,15.9697337 56.4767057,17.0708206 55.7452493,17.945 C55.012266,18.8083333 54.0121785,19.4052667 52.7449869,19.7358 L57.8603412,27.45215 L55.4004987,27.45215 L50.4808136,20.02995 L47.0370341,20.0318 Z M52.2176115,17.9154 C52.9123257,17.7894525 53.5461175,17.4404055 54.0214961,16.92195 C54.4799213,16.4132 54.7091339,15.66765 54.7091339,14.70195 C54.7091339,13.73625 54.4351969,12.9981 53.8891864,12.4542 C53.3431759,11.9103 52.6108136,11.59765 51.6920997,11.5107 C51.3641207,11.4219 50.5994576,11.3781167 49.3981102,11.37935 L47.0370341,11.3793247 L47.0370341,18.0449 C47.9066754,18.1090333 48.6937008,18.1411 49.3981102,18.1411 C50.343146,18.1584925 51.2875926,18.0828899 52.2176115,17.9154 Z" id="Shape"></path>
                    <path d="M67.8450656,16.28 C68.7407962,17.2666667 69.1886614,18.66095 69.1886614,20.46285 L69.1886614,21.6043 L69.0582152,21.86145 L60.4319948,21.86145 C60.4319948,22.92705 60.836378,23.9137167 61.6451444,24.82145 C62.4104287,25.5824167 63.6024584,25.9622833 65.2212336,25.96105 C66.2576766,25.9666329 67.2878815,25.8015954 68.2699475,25.47265 L68.6650131,27.03775 C67.3678278,27.4868771 66.0043061,27.7182136 64.6304987,27.72225 C62.5980227,27.72225 61.0450919,27.17835 59.971706,26.09055 C58.8983202,25.00275 58.3628696,23.4512167 58.3653543,21.43595 C58.3653543,19.52675 58.8355818,17.9524 59.7760367,16.7129 C60.782336,15.4339333 62.1923972,14.7938333 64.0062205,14.7926 C65.6684777,14.7901333 66.9480927,15.2859333 67.8450656,16.28 Z M66.3188451,17.501 C65.8479965,16.8066333 65.1535258,16.45945 64.2354331,16.45945 C63.0775678,16.45945 62.191776,16.8066333 61.5780577,17.501 C60.9384161,18.255967 60.5480755,19.1879267 60.4599475,20.17055 L67.0195715,20.17055 C67.0232546,19.0778167 66.7896938,18.1848833 66.3188451,17.49175 L66.3188451,17.501 Z" id="Shape"></path>
                    <path d="M84.4061417,16.44835 C83.5973753,16.44835 82.5916973,16.81835 81.3891076,17.55835 C81.4740647,18.0307032 81.5071804,18.5108091 81.487874,18.99025 L81.487874,27.454 L79.3560105,27.454 L79.3560105,19.5101 C79.3560105,17.4701667 78.5255031,16.4502 76.8644882,16.4502 C76.0768416,16.4502 75.1034646,16.7647 73.944357,17.3937 L73.944357,27.454 L71.814357,27.454 L71.814357,14.94985 L73.2902625,14.94985 L73.7486877,15.9914 C74.3829473,15.5464004 75.079142,15.1955307 75.8153281,14.94985 C76.3847369,14.8158297 76.9689045,14.7536721 77.5539895,14.76485 C78.2165633,14.7462879 78.8740113,14.8851963 79.4715486,15.17 C80.0166402,15.4419233 80.4843559,15.8451847 80.831916,16.3429 C81.4736382,15.8741881 82.1677373,15.4806144 82.9004199,15.17 C83.5879145,14.8933846 84.3240713,14.7556489 85.0658268,14.76485 C86.3541382,14.76485 87.3436658,15.14965 88.0344094,15.91925 C88.7251531,16.68885 89.0692826,17.7143667 89.0667979,18.9958 L89.0668113,27.454 L86.8678478,27.454 L86.8678478,19.5101 C86.8666054,17.4689333 86.0460367,16.44835 84.4061417,16.44835 Z" id="Shape"></path>
                    <path d="M101.101391,16.28 C101.997122,17.2666667 102.444987,18.66095 102.444987,20.46285 L102.444987,21.6043 L102.312677,21.86145 L93.6864567,21.86145 C93.6864567,22.92705 94.0908399,23.9137167 94.8996063,24.82145 C95.666133,25.5824167 96.8581627,25.9622833 98.4756955,25.96105 C99.5121465,25.9667354 100.542368,25.8016952 101.524409,25.47265 L101.919475,27.03775 C100.622916,27.4868086 99.2600178,27.7181461 97.8868241,27.72225 C95.8531059,27.72225 94.300175,27.17835 93.2280315,26.09055 C92.155888,25.00275 91.6204374,23.4512167 91.6216798,21.43595 C91.6216798,19.52675 92.0919073,17.9524 93.0323622,16.7129 C94.0361767,15.4339333 95.446238,14.7938333 97.2625459,14.7926 C98.9260455,14.7901333 100.205661,15.2859333 101.101391,16.28 Z M99.5770341,17.501 C99.1061855,16.8066333 98.4117148,16.45945 97.493622,16.45945 C96.3357568,16.45945 95.449965,16.8066333 94.8362467,17.501 C94.1966051,18.255967 93.8062645,19.1879267 93.7181365,20.17055 L100.277736,20.17055 C100.280201,19.0778167 100.04664,18.1848833 99.5770341,17.49175 L99.5770341,17.501 Z" id="Shape"></path>
                    <path d="M110.989213,25.51705 C111.49127,25.2809637 111.806077,24.7733851 111.792388,24.22205 C111.802578,23.7848376 111.577504,23.3753122 111.201654,23.1472 C110.80783,22.8869667 109.977323,22.496 108.710131,21.9743 L107.463438,21.48775 C106.915564,21.2275167 106.467078,20.9938 106.117979,20.7866 C105.733139,20.5470203 105.408161,20.2237673 105.167585,19.84125 C104.866461,19.3584827 104.717831,18.797269 104.74084,18.2299 C104.74084,17.0582333 105.227218,16.1905833 106.199974,15.62695 C107.17273,15.0633167 108.369729,14.7815 109.790971,14.7815 C111.0386,14.7915389 112.269298,15.0692141 113.39874,15.5955 L112.873228,17.15875 C111.973638,16.7647394 111.003338,16.5545961 110.020184,16.54085 C109.078486,16.54085 108.318171,16.6759 107.739239,16.946 C107.160306,17.2161 106.87084,17.6009 106.87084,18.1004 C106.85452,18.5691021 107.08364,19.0128208 107.476483,19.2733 C107.881487,19.5557333 108.575958,19.88195 109.559895,20.25195 L110.642598,20.67375 C111.845188,21.1744833 112.686877,21.69495 113.167664,22.23515 C113.648451,22.77535 113.889466,23.4925333 113.890709,24.3867 C113.890709,25.2969 113.463963,26.08315 112.610472,26.74545 C111.758845,27.41145 110.620236,27.7389 109.198373,27.7389 C107.556274,27.733338 105.930712,27.412971 104.410997,26.7954 L105.001732,25.19885 C106.292744,25.6762546 107.65684,25.929698 109.034383,25.9481 C109.712233,25.970913 110.384831,25.8226018 110.989213,25.51705 Z" id="Shape"></path>
                    <path d="M122.373438,25.51705 C122.875496,25.2809637 123.190303,24.7733851 123.176614,24.22205 C123.187582,23.7851193 122.963166,23.3755009 122.587743,23.1472 C122.19392,22.8869667 121.363412,22.496 120.09622,21.9743 L118.849528,21.48775 C118.302896,21.2275167 117.855031,20.9938 117.505932,20.7866 C117.121092,20.5470203 116.796114,20.2237673 116.555538,19.84125 C116.253776,19.3587551 116.105093,18.7973434 116.128793,18.2299 C116.128793,17.0582333 116.615171,16.1905833 117.587927,15.62695 C118.560682,15.0633167 119.757682,14.7815 121.178924,14.7815 C122.426553,14.7915389 123.65725,15.0692141 124.786693,15.5955 L124.261181,17.15875 C123.361591,16.7647394 122.391291,16.5545961 121.408136,16.54085 C120.466439,16.54085 119.706124,16.6759 119.127192,16.946 C118.548259,17.2161 118.258793,17.6009 118.258793,18.1004 C118.242473,18.5691021 118.471593,19.0128208 118.864436,19.2733 C119.26944,19.5557333 119.963911,19.88195 120.947848,20.25195 L122.030551,20.67375 C123.234383,21.1744833 124.076072,21.69495 124.555617,22.23515 C125.035162,22.77535 125.275556,23.4925333 125.276798,24.3867 C125.276798,25.2969 124.850674,26.08315 123.998425,26.74545 C123.146798,27.41145 122.008189,27.7389 120.586325,27.7389 C118.944226,27.733338 117.318665,27.412971 115.79895,26.7954 L116.389685,25.19885 C117.680667,25.6763613 119.044782,25.9298082 120.422336,25.9481 C121.098911,25.970042 121.770088,25.8217614 122.373438,25.51705 Z" id="Shape"></path>
                    <path d="M129.887139,16.75915 C129.305057,16.8417546 128.729639,16.9654005 128.165249,17.12915 L127.738504,15.5659 C129.054588,15.0963363 130.439893,14.8462898 131.838241,14.8259 C133.259484,14.8259 134.342187,15.0429667 135.086352,15.4771 C135.662354,15.8652167 136.130281,16.3914751 136.446719,17.00705 C136.695188,17.5497167 136.819423,18.3421333 136.819423,19.3843 L136.819423,27.45955 L135.213071,27.45955 L134.754646,26.28665 C133.512301,27.2831833 132.232686,27.7826833 130.915801,27.78515 C129.870511,27.8162271 128.84984,27.4668472 128.045984,26.8028 C127.292225,26.1976823 126.862906,25.2803851 126.88315,24.31825 C126.851362,23.4206058 127.174386,22.5462023 127.783228,21.8818 C128.376223,21.2426321 129.146539,20.7920346 129.997087,20.5868 C131.115197,20.3031333 132.678688,20.1613 134.687559,20.1613 L134.687559,20.06325 C134.687559,19.1653833 134.599974,18.5080167 134.424803,18.09115 C134.074462,17.1044833 133.112887,16.61115 131.540079,16.61115 C130.986113,16.6187508 130.433535,16.6682272 129.887139,16.75915 Z M133.122205,25.715 C133.698239,25.450829 134.229459,25.0994595 134.696877,24.67345 L134.696877,21.69125 C133.18867,21.69125 132.07056,21.7677167 131.342546,21.92065 C130.53378,22.0933167 129.932485,22.348 129.538661,22.6847 C129.14698,23.068485 128.933406,23.5964967 128.948952,24.1426192 C128.964498,24.6887416 129.207767,25.2039368 129.620656,25.56515 C130.074622,25.9147816 130.635805,26.098962 131.210236,26.08685 C131.867046,26.1004497 132.519117,25.9736313 133.122205,25.715 Z" id="Shape"></path>
                    <path d="M148.770157,9.31845 C150.343843,9.2981464 151.896288,9.68041635 153.278005,10.42845 C154.620828,11.1642642 155.729727,12.2580713 156.479528,13.5864 C157.269659,14.95355 157.659134,16.5464 157.659134,18.33905 C157.688536,20.0231662 157.288528,21.687322 156.496299,23.1768 C155.75818,24.5589251 154.645355,25.7085346 153.283596,26.4957 C151.884648,27.2986243 150.292732,27.7103383 148.676982,27.6871 C147.173325,27.6938532 145.691539,27.3295903 144.364803,26.62705 C143.001136,25.9038243 141.870273,24.8138632 141.101785,23.48205 C140.269414,22.0933167 139.85385,20.43325 139.855092,18.50185 C139.855092,16.7011833 140.248294,15.1058667 141.034698,13.7159 C141.785644,12.3631054 142.897972,11.2422019 144.249265,10.47655 C145.625565,9.69799752 147.186232,9.2982072 148.770157,9.31845 Z M148.639711,12.27845 C147.704944,12.2717211 146.782392,12.4894205 145.950656,12.913 C145.091207,13.3628437 144.38413,14.0538546 143.917559,14.8999 C143.39329,15.799 143.131155,16.9324333 143.131155,18.3002 C143.104206,19.4678489 143.363197,20.6245387 143.885879,21.6709 C144.349705,22.5898364 145.066243,23.3595467 145.95252,23.8909 C146.834016,24.4136142 147.844083,24.6838292 148.870787,24.6716 C149.802261,24.6737445 150.720192,24.4502127 151.544934,24.0204 C152.419089,23.5539888 153.132914,22.8388996 153.594803,21.9669 C154.119073,21.0345 154.380586,19.8733167 154.379344,18.48335 C154.379344,17.0724167 154.096089,15.90075 153.52958,14.96835 C153.021103,14.0916554 152.26857,13.3792687 151.36231,12.9167 C150.517251,12.4965143 149.584839,12.2785656 148.639711,12.2803 L148.639711,12.27845 Z" id="Shape"></path>
                    <path d="M161.991811,14.94985 L162.386877,15.8619 C163.739063,15.1770156 165.231525,14.8092963 166.74937,14.78705 C168.082406,14.78705 169.081872,15.0799667 169.747769,15.6658 C170.381023,16.1988625 170.828441,16.9169192 171.026142,17.71745 C171.221661,18.583144 171.315462,19.468416 171.305669,20.35555 L171.305669,27.454 L168.189869,27.454 L168.189869,19.96705 C168.198677,19.3459681 168.027943,18.7353982 167.6979,18.2077 C167.368679,17.6884667 166.778565,17.4282333 165.927559,17.427 C165.161032,17.427 164.144794,17.65455 162.878845,18.10965 L162.878845,27.454 L159.764908,27.454 L159.764908,14.9517 L161.991811,14.94985 Z" id="Shape"></path>
                    <path d="M178.685197,25.3043 C179.195576,25.2941009 179.702413,25.2176007 180.192782,25.07675 L180.192782,27.13025 C179.309365,27.5393755 178.346232,27.7509403 177.371417,27.75 C175.228373,27.75 174.15685,26.5783333 174.15685,24.235 L174.15685,9.546 L177.240971,9.546 L177.240971,23.31 C177.240971,23.9636667 177.345328,24.457 177.554042,24.79 C177.759029,25.1378 178.135459,25.3043 178.685197,25.3043 Z" id="Shape"></path>
                    <path d="M181.799134,12.24885 C181.420972,11.8761715 181.208289,11.3690634 181.208289,10.840075 C181.208289,10.3110866 181.420972,9.80397846 181.799134,9.4313 C182.172434,9.0598545 182.681332,8.85430115 183.209816,8.8615 C184.016943,8.86375401 184.744182,9.34578236 185.055684,10.0849786 C185.367187,10.8241748 185.20234,11.6767009 184.63727,12.24885 C184.2664,12.6359356 183.747763,12.8490107 183.209816,12.8353 C182.678188,12.8415983 182.167608,12.6293396 181.799134,12.24885 Z M181.635144,27.454 L184.786352,27.454 L184.786352,14.9517 L181.635144,14.9517 L181.635144,27.454 Z" id="Shape"></path>
                    <path d="M189.767533,14.94985 L190.162598,15.8619 C191.514832,15.1771397 193.007264,14.8094277 194.525092,14.78705 C195.855643,14.78705 196.858215,15.07935 197.523491,15.6658 C198.158121,16.1980084 198.606358,16.9163335 198.803727,17.71745 C198.998586,18.583222 199.091762,19.4684894 199.081391,20.35555 L199.081391,27.454 L195.965591,27.454 L195.965591,19.96705 C195.973816,19.3462969 195.803819,18.7360523 195.475486,18.2077 C195.147507,17.6884667 194.556772,17.4282333 193.703281,17.427 C192.937997,17.427 191.921759,17.65455 190.654567,18.10965 L190.654567,27.454 L187.538766,27.454 L187.538766,14.9517 L189.767533,14.94985 Z" id="Shape"></path>
                    <path d="M206.988294,14.75745 C208.891566,14.75745 210.351321,15.3377333 211.367559,16.4983 C212.383797,17.6588667 212.892537,19.2498667 212.89378,21.2713 L212.89378,22.47565 L204.334646,22.47565 C204.420367,23.54125 204.793071,24.27755 205.452756,24.69565 C206.112441,25.11375 207.038609,25.3117 208.248031,25.3117 C209.418086,25.3223016 210.58511,25.1918473 211.723491,24.9232 L212.282546,27.03775 C210.850949,27.5393148 209.343135,27.7927576 207.825013,27.787 C205.657122,27.787 204.006045,27.1900667 202.871785,25.9962 C201.737524,24.8023333 201.164803,23.2286 201.153622,21.275 C201.127224,20.0787893 201.408805,18.8956837 201.971706,17.8377 C202.471325,16.9020216 203.212954,16.1153263 204.120341,15.5585 C204.982962,15.0325355 205.975967,14.7551787 206.988294,14.75745 Z M207.055381,17.205 C206.371387,17.2170051 205.723534,17.5120913 205.268268,18.019 C204.733438,18.56105 204.440866,19.314 204.398005,20.2982 L209.776115,20.2982 C209.776115,19.2992 209.524541,18.5339167 209.021391,18.00235 C208.512508,17.4675943 207.795868,17.1769481 207.055381,17.205 Z" id="Shape"></path>
                    <polygon id="Shape" points="16.1380577 11.1 0 20.35 0 27.75 16.1380577 18.50185 32.277979 27.75 32.277979 20.35"></polygon>
                    <polygon id="Shape" points="3.22761155 29.6 16.1380577 37 29.0485039 29.6 16.1380577 22.2"></polygon>
                    <polygon id="Shape" points="16.1380577 0 0 9.25 0 16.65 16.1380577 7.4 32.277979 16.65 32.277979 9.25"></polygon>
                </g>
            </g>
        </g>
    </g>
</svg>