<?xml version="1.0" encoding="UTF-8"?>
<svg width="181px" height="32px" viewBox="0 0 181 32" version="1.1" xmlns="http://www.w3.org/2000/svg" xmlns:xlink="http://www.w3.org/1999/xlink">
    <!-- Generator: sketchtool 51.2 (57519) - http://www.bohemiancoding.com/sketch -->
    <title>25739FF6-C0CA-47B4-8116-533FE3DD9BCD@2x</title>
    <desc>Created with sketchtool.</desc>
    <defs></defs>
    <g id="Page-1" stroke="none" stroke-width="1" fill="none" fill-rule="evenodd">
        <g id="LP---stag-test---mobile1" transform="translate(-70.000000, -2753.000000)" fill="#0077BA">
            <g id="FOOTER" transform="translate(0.000000, 2703.000000)">
                <g id="M.3-about-remessa" transform="translate(0.000000, 0.948427)">
                    <g id="RM-logo" transform="translate(70.000000, 49.000000)">
                        <g id="Shape">
                            <path d="M39.9704374,17.1130867 L39.9704374,23.4538425 L38.13035,23.4538425 L38.13035,8.15510964 L42.952266,8.15510964 C43.4784177,8.14537911 44.0046629,8.16860463 44.5279003,8.22464934 C44.8446107,8.27048232 45.1724059,8.33211978 45.4891164,8.40482037 C46.3388306,8.69130354 47.0720064,9.24607114 47.5778215,9.98526797 C48.078224,10.7228102 48.328953,11.6183972 48.3300087,12.6720289 C48.331512,13.6428796 47.9919424,14.5835338 47.3703762,15.3303418 C46.7475124,16.067884 45.8976728,16.5778417 44.8208574,16.8602151 L49.1677078,23.452262 L47.0774191,23.452262 L42.8968416,17.1115062 L39.9704374,17.1130867 Z M44.3727122,15.3050546 C44.9630561,15.1974582 45.5016304,14.8992687 45.9055906,14.4563542 C46.2951444,14.0217312 46.4899213,13.3848108 46.4899213,12.5598171 C46.4899213,11.7348235 46.2571391,11.1042249 45.7931584,10.6395733 C45.3291776,10.1749217 44.7068416,9.90782604 43.9261505,9.833545 C43.6474453,9.75768352 42.9976611,9.72027959 41.9767979,9.72133322 L39.9704374,9.72131157 L39.9704374,15.4156859 C40.7094284,15.4704748 41.3782152,15.4978692 41.9767979,15.4978692 C42.7798564,15.5127275 43.5824144,15.4481405 44.3727122,15.3050546 Z" fill-rule="nonzero"></path>
                            <path d="M57.6523797,13.9079389 C58.4135404,14.7508443 58.7941207,15.941975 58.7941207,17.481331 L58.7941207,18.4564671 L58.6832721,18.6761494 L51.3530096,18.6761494 C51.3530096,19.5864872 51.6966404,20.4293926 52.383902,21.2048655 C53.0342141,21.8549563 54.0471595,22.1794749 55.4227384,22.1784212 C56.3034716,22.1831907 57.178904,22.0421998 58.0134296,21.7611831 L58.3491426,23.0982418 C57.2468396,23.4819292 56.0881662,23.6795591 54.9207524,23.6830074 C53.193625,23.6830074 51.8739983,23.2183558 50.9618723,22.2890526 C50.0497463,21.3597494 49.594739,20.0342807 49.5968504,18.3126464 C49.5968504,16.6816245 49.9964334,15.3366636 50.7955993,14.2777637 C51.6507174,13.1851476 52.8489385,12.6383127 54.3902625,12.6372591 C55.8027909,12.6351518 56.8901633,13.0587117 57.6523797,13.9079389 Z M56.3554506,14.9510343 C55.9553397,14.3578397 55.3652027,14.0612423 54.5850394,14.0612423 C53.6011257,14.0612423 52.8484106,14.3578397 52.3268941,14.9510343 C51.7833489,15.5959996 51.451651,16.3921691 51.3767629,17.2316202 L56.9509035,17.2316202 C56.9540332,16.2981025 56.7555614,15.5352731 56.3554506,14.9431321 L56.3554506,14.9510343 Z" fill-rule="nonzero"></path>
                            <path d="M71.7254068,14.0517597 C71.0381452,14.0517597 70.183555,14.3678492 69.161636,15.0000282 C69.2338296,15.4035577 69.2619702,15.8137102 69.2455643,16.2232947 L69.2455643,23.4538425 L67.4339808,23.4538425 L67.4339808,16.6674004 C67.4339808,14.9246936 66.7282444,14.0533401 65.3167717,14.0533401 C64.647457,14.0533401 63.820315,14.3220162 62.8353456,14.8593684 L62.8353456,23.4538425 L61.0253456,23.4538425 L61.0253456,12.7715971 L62.2795188,12.7715971 L62.6690726,13.6613891 C63.2080444,13.2812277 63.7996465,12.9814811 64.4252318,12.7715971 C64.9090956,12.6571041 65.405501,12.6040031 65.9026859,12.6135523 C66.4657181,12.5976948 67.0243945,12.7163637 67.532161,12.9596704 C67.995361,13.1919733 68.3928095,13.536478 68.688154,13.9616741 C69.2334672,13.5612555 69.8232885,13.225027 70.4458968,12.9596704 C71.0301057,12.7233589 71.6556662,12.6056918 72.2859843,12.6135523 C73.3807466,12.6135523 74.2216127,12.9422854 74.8085827,13.5997516 C75.3955526,14.2572178 75.6879819,15.1333126 75.6858705,16.228036 L75.6858819,23.4538425 L73.8172791,23.4538425 L73.8172791,16.6674004 C73.8162234,14.9236399 73.1189326,14.0517597 71.7254068,14.0517597 Z" fill-rule="nonzero"></path>
                            <path d="M85.9124497,13.9079389 C86.6736104,14.7508443 87.0541907,15.941975 87.0541907,17.481331 L87.0541907,18.4564671 L86.9417585,18.6761494 L79.6114961,18.6761494 C79.6114961,19.5864872 79.9551269,20.4293926 80.6423885,21.2048655 C81.2937562,21.8549563 82.3067017,22.1794749 83.6812248,22.1784212 C84.5619649,22.1832783 85.4374116,22.0422851 86.271916,21.7611831 L86.607629,23.0982418 C85.5058578,23.4818707 84.3477146,23.6795014 83.1808224,23.6830074 C81.4526393,23.6830074 80.1330125,23.2183558 79.2219423,22.2890526 C78.310872,21.3597494 77.8558647,20.0342807 77.8569204,18.3126464 C77.8569204,16.6816245 78.2565034,15.3366636 79.0556693,14.2777637 C79.908676,13.1851476 81.1068971,12.6383127 82.6503325,12.6372591 C84.0639166,12.6351518 85.151289,13.0587117 85.9124497,13.9079389 Z M84.6171041,14.9510343 C84.2169933,14.3578397 83.6268562,14.0612423 82.8466929,14.0612423 C81.8627792,14.0612423 81.1100642,14.3578397 80.5885477,14.9510343 C80.0450024,15.5959996 79.7133045,16.3921691 79.6384164,17.2316202 L85.2125364,17.2316202 C85.2146311,16.2981025 85.0161592,15.5352731 84.6171041,14.9431321 L84.6171041,14.9510343 Z" fill-rule="nonzero"></path>
                            <path d="M94.3147769,21.7991138 C94.7414079,21.5974262 95.0089198,21.1638039 94.9972878,20.6928005 C95.0059469,20.3192917 94.8146867,19.9694358 94.4953018,19.7745604 C94.1606445,19.5522441 93.4549081,19.2182429 92.3780927,18.7725567 L91.3186964,18.3568989 C90.8531321,18.1345826 90.4720239,17.9349194 90.1753718,17.7579093 C89.8483481,17.5532373 89.5721933,17.2770835 89.3677603,16.9503006 C89.1118755,16.5378744 88.9855747,16.0584317 89.0051269,15.5737307 C89.0051269,14.5727806 89.4184339,13.8315506 90.2450481,13.3500409 C91.0716623,12.8685312 92.0888306,12.6277764 93.2965529,12.6277764 C94.3567445,12.6363525 95.4025487,12.8735693 96.3623097,13.3231733 L95.915748,14.6586515 C95.1513073,14.3220499 94.3267803,14.1425253 93.4913298,14.130782 C92.6911082,14.130782 92.045019,14.2461547 91.5530621,14.4769001 C91.0611053,14.7076454 90.8151269,15.0363785 90.8151269,15.4630994 C90.8012587,15.8635097 90.9959572,16.2425768 91.3297813,16.4651032 C91.6739399,16.7063848 92.264077,16.9850704 93.1001925,17.3011599 L94.0202362,17.661502 C95.0421551,18.0892765 95.7573928,18.5339091 96.1659493,18.9953998 C96.5745057,19.4568905 96.7793118,20.0695773 96.7803675,20.8334603 C96.7803675,21.6110406 96.417734,22.2827308 95.6924672,22.848531 C94.9687839,23.4174922 94.0012336,23.6972314 92.7929834,23.6972314 C91.3975846,23.6924798 90.016239,23.4187915 88.7248381,22.8912031 L89.2268241,21.5272768 C90.323881,21.9351217 91.4830424,22.1516374 92.6536308,22.1673581 C93.2296443,22.1868471 93.801194,22.0601455 94.3147769,21.7991138 Z" fill-rule="nonzero"></path>
                            <path d="M103.988696,21.7991138 C104.415327,21.5974262 104.682839,21.1638039 104.671207,20.6928005 C104.680527,20.3195323 104.489827,19.9695969 104.170805,19.7745604 C103.836148,19.5522441 103.130411,19.2182429 102.053596,18.7725567 L100.994199,18.3568989 C100.529691,18.1345826 100.149111,17.9349194 99.8524584,17.7579093 C99.5254347,17.5532373 99.2492799,17.2770835 99.0448469,16.9503006 C98.7884198,16.5381071 98.6620744,16.0584953 98.6822135,15.5737307 C98.6822135,14.5727806 99.0955206,13.8315506 99.9221347,13.3500409 C100.748749,12.8685312 101.765917,12.6277764 102.97364,12.6277764 C104.033831,12.6363525 105.079635,12.8735693 106.039396,13.3231733 L105.592835,14.6586515 C104.828394,14.3220499 104.003867,14.1425253 103.168416,14.130782 C102.368195,14.130782 101.722106,14.2461547 101.230149,14.4769001 C100.738192,14.7076454 100.492213,15.0363785 100.492213,15.4630994 C100.478345,15.8635097 100.673044,16.2425768 101.006868,16.4651032 C101.351027,16.7063848 101.941164,16.9850704 102.777279,17.3011599 L103.697323,17.661502 C104.720297,18.0892765 105.435535,18.5339091 105.843036,18.9953998 C106.250537,19.4568905 106.454815,20.0695773 106.455871,20.8334603 C106.455871,21.6110406 106.093765,22.2827308 105.369554,22.848531 C104.645871,23.4174922 103.67832,23.6972314 102.47007,23.6972314 C101.074671,23.6924798 99.6933257,23.4187915 98.4019248,22.8912031 L98.9039108,21.5272768 C100.000942,21.9352128 101.16012,22.1517315 102.330717,22.1673581 C102.905648,22.1861031 103.47599,22.0594276 103.988696,21.7991138 Z" fill-rule="nonzero"></path>
                            <path d="M110.373578,14.3172749 C109.878945,14.3878436 109.389975,14.4934739 108.910376,14.6333644 L108.547743,13.2978862 C109.666105,12.8967398 110.843289,12.683126 112.031557,12.6657071 C113.23928,12.6657071 114.159323,12.8511463 114.791689,13.2220247 C115.281156,13.5535912 115.678784,14.0031716 115.947682,14.5290548 C116.158822,14.9926528 116.264392,15.6696112 116.264392,16.55993 L116.264392,23.4585838 L114.89937,23.4585838 L114.509816,22.45658 C113.454115,23.3079145 112.366742,23.7346353 111.247699,23.7367426 C110.359448,23.7632916 109.492118,23.4648178 108.809029,22.8975249 C108.168511,22.3805753 107.80369,21.596932 107.820892,20.7749838 C107.793881,20.0081299 108.068375,19.2611305 108.585748,18.6935343 C109.089654,18.1474957 109.744242,17.762552 110.467008,17.587221 C111.417139,17.3448857 112.745739,17.223718 114.452808,17.223718 L114.452808,17.1399543 C114.452808,16.3729104 114.378381,15.8113247 114.229528,15.4551971 C113.93182,14.6122917 113.114707,14.190839 111.778189,14.190839 C111.307448,14.1973324 110.837887,14.2395999 110.373578,14.3172749 Z M113.122625,21.9682217 C113.612119,21.7425415 114.063531,21.4423679 114.460726,21.0784297 L114.460726,18.5307482 C113.179105,18.5307482 112.228973,18.5960733 111.610332,18.7267237 C110.923071,18.8742321 110.412111,19.0918071 110.077454,19.3794485 C109.744617,19.7073145 109.563129,20.1583928 109.576339,20.6249431 C109.58955,21.0914933 109.796272,21.5316225 110.14713,21.8402055 C110.532894,22.1388943 111.009769,22.2962389 111.4979,22.2858917 C112.056034,22.2975098 112.610142,22.1891694 113.122625,21.9682217 Z" fill-rule="nonzero"></path>
                            <path d="M126.419711,7.96071459 C127.756974,7.9433693 129.076189,8.26994099 130.250324,8.90898315 C131.391408,9.5375863 132.333712,10.4720213 132.970866,11.6068072 C133.642292,12.774758 133.973255,14.1355234 133.973255,15.6669771 C133.99824,17.1057108 133.658327,18.5273925 132.985118,19.7998476 C132.35789,20.9805916 131.41225,21.9626983 130.255074,22.6351706 C129.066297,23.3211056 127.713543,23.6728313 126.340534,23.6529789 C125.062778,23.6587481 123.803609,23.3475598 122.676194,22.7473824 C121.517397,22.1295335 120.556429,21.1983842 119.903395,20.0606215 C119.196075,18.8742321 118.842943,17.4560438 118.843998,15.8060565 C118.843998,14.2677542 119.178128,12.9048815 119.846387,11.7174385 C120.484515,10.5617515 121.429732,9.60416817 122.578014,8.95007479 C123.747546,8.28496052 125.073747,7.94342125 126.419711,7.96071459 Z M126.308863,10.4894308 C125.51453,10.4836823 124.730577,10.669662 124.023797,11.0315243 C123.293467,11.415824 122.692617,12.0061518 122.296142,12.728925 C121.850636,13.4970225 121.627883,14.4653101 121.627883,15.6337877 C121.604982,16.6313055 121.825064,17.619461 122.269221,18.5133632 C122.663364,19.2984069 123.272253,19.9559674 124.025381,20.4099004 C124.774445,20.856453 125.632766,21.0872966 126.505223,21.0768493 C127.296757,21.0786813 128.076783,20.887719 128.77762,20.5205317 C129.520447,20.1220785 130.12703,19.5111806 130.519528,18.7662349 C130.965034,17.9696893 131.187259,16.977695 131.186203,15.790252 C131.186203,14.5848973 130.945503,13.5839472 130.464103,12.7874016 C130.032017,12.0384449 129.39254,11.4298558 128.622432,11.0346852 C127.904331,10.6757222 127.112,10.4895295 126.308863,10.4910112 L126.308863,10.4894308 Z" fill-rule="nonzero"></path>
                            <path d="M137.655013,12.7715971 L137.990726,13.5507578 C139.139767,12.9656638 140.40801,12.6515227 141.697822,12.6325177 C142.830589,12.6325177 143.679901,12.8827552 144.245757,13.3832303 C144.783874,13.8386235 145.164074,14.4520564 145.332073,15.1359467 C145.498219,15.8755056 145.577928,16.63179 145.569606,17.389665 L145.569606,23.4538425 L142.921907,23.4538425 L142.921907,17.057771 C142.929393,16.5271832 142.784309,16.0055758 142.50385,15.5547653 C142.224089,15.1111864 141.722631,14.8888701 140.999475,14.8878164 C140.348107,14.8878164 139.484544,15.0822115 138.408784,15.4710016 L138.408784,23.4538425 L135.762668,23.4538425 L135.762668,12.7731775 L137.655013,12.7715971 Z" fill-rule="nonzero"></path>
                            <path d="M151.840472,21.6173623 C152.274175,21.6086493 152.704867,21.5432954 153.121566,21.4229673 L153.121566,23.1772641 C152.370869,23.5267784 151.552432,23.7075174 150.724068,23.7067141 C148.902983,23.7067141 147.992441,22.7057639 147.992441,20.7038636 L147.992441,8.15510964 L150.61322,8.15510964 L150.61322,19.9136398 C150.61322,20.4720646 150.701899,20.8935173 150.879256,21.1779979 C151.053447,21.4751221 151.373325,21.6173623 151.840472,21.6173623 Z" fill-rule="nonzero"></path>
                            <path d="M154.486588,10.4641436 C154.165239,10.1457659 153.984508,9.7125454 153.984508,9.26063274 C153.984508,8.80872009 154.165239,8.37549961 154.486588,8.05712189 C154.803805,7.73979748 155.236249,7.56419408 155.685337,7.57034403 C156.371205,7.57226962 156.989187,7.98406452 157.253891,8.61555691 C157.518596,9.24704929 157.378514,9.97535889 156.898338,10.4641436 C156.583185,10.7948293 156.142465,10.9768585 155.685337,10.9651455 C155.233578,10.9705261 154.799704,10.7891943 154.486588,10.4641436 Z M154.347235,23.4538425 L157.025022,23.4538425 L157.025022,12.7731775 L154.347235,12.7731775 L154.347235,23.4538425 Z" fill-rule="nonzero"></path>
                            <path d="M161.257857,12.7715971 L161.59357,13.5507578 C162.74265,12.9657698 164.010868,12.6516349 165.300665,12.6325177 C166.431321,12.6325177 167.283272,12.8822284 167.8486,13.3832303 C168.387887,13.8378938 168.768783,14.4515561 168.9365,15.1359467 C169.102085,15.8755723 169.181263,16.6318526 169.17245,17.389665 L169.17245,23.4538425 L166.524751,23.4538425 L166.524751,17.057771 C166.531741,16.5274642 166.387283,16.0061346 166.108276,15.5547653 C165.829571,15.1111864 165.327585,14.8888701 164.602318,14.8878164 C163.952006,14.8878164 163.088443,15.0822115 162.011627,15.4710016 L162.011627,23.4538425 L159.363928,23.4538425 L159.363928,12.7731775 L161.257857,12.7715971 Z" fill-rule="nonzero"></path>
                            <path d="M175.891461,12.6072305 C177.508796,12.6072305 178.749245,13.1029643 179.612808,14.0944317 C180.476372,15.0858992 180.908682,16.4450841 180.909738,18.1719866 L180.909738,19.200858 L173.636483,19.200858 C173.709326,20.1111958 174.026037,20.7402139 174.586614,21.0973951 C175.147192,21.4545762 175.934217,21.6236841 176.961942,21.6236841 C177.956214,21.6327411 178.94791,21.5212945 179.915267,21.2917901 L180.390332,23.0982418 C179.173811,23.5267266 177.892523,23.7432418 176.602476,23.738323 C174.760277,23.738323 173.35725,23.2283653 172.393395,22.2084498 C171.429539,21.1885342 170.942861,19.8441001 170.93336,18.1751475 C170.910927,17.1532294 171.150205,16.1425071 171.628539,15.2386758 C172.053098,14.4393295 172.683309,13.7672589 173.454374,13.2915644 C174.1874,12.842235 175.031221,12.6052902 175.891461,12.6072305 Z M175.948469,14.6981627 C175.367235,14.7084186 174.816712,14.9605096 174.429843,15.3935597 C173.975363,15.8566308 173.726745,16.499873 173.690324,17.3406711 L178.260455,17.3406711 C178.260455,16.4872294 178.046675,15.8334509 177.619116,15.3793356 C177.186685,14.922496 176.577709,14.6741981 175.948469,14.6981627 Z" fill-rule="nonzero"></path>
                            <polygon fill-rule="nonzero" points="13.7135608 9.48268563 0 17.3849237 0 23.7067141 13.7135608 15.8060565 27.4287052 23.7067141 27.4287052 17.3849237"></polygon>
                            <polygon fill-rule="nonzero" points="2.74271216 25.2871617 13.7135608 31.6089521 24.6844094 25.2871617 13.7135608 18.9653713"></polygon>
                            <polygon fill-rule="nonzero" points="13.7135608 0 0 7.90223803 0 14.2240284 13.7135608 6.32179042 27.4287052 14.2240284 27.4287052 7.90223803"></polygon>
                        </g>
                    </g>
                </g>
            </g>
        </g>
    </g>
</svg>